<?xml version="1.0" encoding="UTF-8" standalone="no"?>
<!DOCTYPE svg PUBLIC "-//W3C//DTD SVG 1.1//EN"
 "http://www.w3.org/Graphics/SVG/1.1/DTD/svg11.dtd">
<!-- Generated by graphviz version 6.0.2 (20221011.1828)
 -->
<!-- Pages: 1 -->
<svg width="2839pt" height="345pt"
 viewBox="0.00 0.00 3585.75 436.00" xmlns="http://www.w3.org/2000/svg" xmlns:xlink="http://www.w3.org/1999/xlink">
<g id="graph0" class="graph" transform="scale(0.791667 0.791667) rotate(0) translate(4 432)">
<polygon fill="white" stroke="none" points="-4,4 -4,-432 3581.75,-432 3581.75,4 -4,4"/>
<g id="clust1" class="cluster">
<title>cluster0</title>
<path fill="lightgreen" stroke="green" stroke-width="2" d="M198.75,-8C198.75,-8 392.75,-8 392.75,-8 398.75,-8 404.75,-14 404.75,-20 404.75,-20 404.75,-123 404.75,-123 404.75,-129 398.75,-135 392.75,-135 392.75,-135 198.75,-135 198.75,-135 192.75,-135 186.75,-129 186.75,-123 186.75,-123 186.75,-20 186.75,-20 186.75,-14 192.75,-8 198.75,-8"/>
<text text-anchor="middle" x="295.75" y="-119.8" font-family="Aqum" font-size="14.00">0</text>
</g>
<g id="clust2" class="cluster">
<title>cluster1</title>
<path fill="lightgreen" stroke="green" stroke-width="2" d="M587.75,-174C587.75,-174 782.75,-174 782.75,-174 788.75,-174 794.75,-180 794.75,-186 794.75,-186 794.75,-271 794.75,-271 794.75,-277 788.75,-283 782.75,-283 782.75,-283 587.75,-283 587.75,-283 581.75,-283 575.75,-277 575.75,-271 575.75,-271 575.75,-186 575.75,-186 575.75,-180 581.75,-174 587.75,-174"/>
<text text-anchor="middle" x="685.25" y="-267.8" font-family="Aqum" font-size="14.00">1</text>
</g>
<g id="clust8" class="cluster">
<title>cluster7</title>
<path fill="lightgreen" stroke="green" stroke-width="2" d="M2819.75,-174C2819.75,-174 2978.75,-174 2978.75,-174 2984.75,-174 2990.75,-180 2990.75,-186 2990.75,-186 2990.75,-271 2990.75,-271 2990.75,-277 2984.75,-283 2978.75,-283 2978.75,-283 2819.75,-283 2819.75,-283 2813.75,-283 2807.75,-277 2807.75,-271 2807.75,-271 2807.75,-186 2807.75,-186 2807.75,-180 2813.75,-174 2819.75,-174"/>
<text text-anchor="middle" x="2899.25" y="-267.8" font-family="Aqum" font-size="14.00">7</text>
</g>
<g id="clust5" class="cluster">
<title>cluster4</title>
<path fill="lightgreen" stroke="green" stroke-width="2" d="M1757.75,-174C1757.75,-174 1916.75,-174 1916.75,-174 1922.75,-174 1928.75,-180 1928.75,-186 1928.75,-186 1928.75,-271 1928.75,-271 1928.75,-277 1922.75,-283 1916.75,-283 1916.75,-283 1757.75,-283 1757.75,-283 1751.75,-283 1745.75,-277 1745.75,-271 1745.75,-271 1745.75,-186 1745.75,-186 1745.75,-180 1751.75,-174 1757.75,-174"/>
<text text-anchor="middle" x="1837.25" y="-267.8" font-family="Aqum" font-size="14.00">4</text>
</g>
<g id="clust4" class="cluster">
<title>cluster3</title>
<path fill="lightgreen" stroke="green" stroke-width="2" d="M1367.75,-174C1367.75,-174 1562.75,-174 1562.75,-174 1568.75,-174 1574.75,-180 1574.75,-186 1574.75,-186 1574.75,-271 1574.75,-271 1574.75,-277 1568.75,-283 1562.75,-283 1562.75,-283 1367.75,-283 1367.75,-283 1361.75,-283 1355.75,-277 1355.75,-271 1355.75,-271 1355.75,-186 1355.75,-186 1355.75,-180 1361.75,-174 1367.75,-174"/>
<text text-anchor="middle" x="1465.25" y="-267.8" font-family="Aqum" font-size="14.00">3</text>
</g>
<g id="clust6" class="cluster">
<title>cluster5</title>
<path fill="lightgreen" stroke="green" stroke-width="2" d="M2111.75,-174C2111.75,-174 2270.75,-174 2270.75,-174 2276.75,-174 2282.75,-180 2282.75,-186 2282.75,-186 2282.75,-271 2282.75,-271 2282.75,-277 2276.75,-283 2270.75,-283 2270.75,-283 2111.75,-283 2111.75,-283 2105.75,-283 2099.75,-277 2099.75,-271 2099.75,-271 2099.75,-186 2099.75,-186 2099.75,-180 2105.75,-174 2111.75,-174"/>
<text text-anchor="middle" x="2191.25" y="-267.8" font-family="Aqum" font-size="14.00">5</text>
</g>
<g id="clust3" class="cluster">
<title>cluster2</title>
<path fill="lightgreen" stroke="green" stroke-width="2" d="M977.75,-174C977.75,-174 1172.75,-174 1172.75,-174 1178.75,-174 1184.75,-180 1184.75,-186 1184.75,-186 1184.75,-271 1184.75,-271 1184.75,-277 1178.75,-283 1172.75,-283 1172.75,-283 977.75,-283 977.75,-283 971.75,-283 965.75,-277 965.75,-271 965.75,-271 965.75,-186 965.75,-186 965.75,-180 971.75,-174 977.75,-174"/>
<text text-anchor="middle" x="1075.25" y="-267.8" font-family="Aqum" font-size="14.00">2</text>
</g>
<g id="clust7" class="cluster">
<title>cluster6</title>
<path fill="lightgreen" stroke="green" stroke-width="2" d="M2465.75,-174C2465.75,-174 2624.75,-174 2624.75,-174 2630.75,-174 2636.75,-180 2636.75,-186 2636.75,-186 2636.75,-271 2636.75,-271 2636.75,-277 2630.75,-283 2624.75,-283 2624.75,-283 2465.75,-283 2465.75,-283 2459.75,-283 2453.75,-277 2453.75,-271 2453.75,-271 2453.75,-186 2453.75,-186 2453.75,-180 2459.75,-174 2465.75,-174"/>
<text text-anchor="middle" x="2545.25" y="-267.8" font-family="Aqum" font-size="14.00">6</text>
</g>
<g id="clust9" class="cluster">
<title>cluster8</title>
<path fill="lightgreen" stroke="green" stroke-width="2" d="M3173.75,-174C3173.75,-174 3332.75,-174 3332.75,-174 3338.75,-174 3344.75,-180 3344.75,-186 3344.75,-186 3344.75,-271 3344.75,-271 3344.75,-277 3338.75,-283 3332.75,-283 3332.75,-283 3173.75,-283 3173.75,-283 3167.75,-283 3161.75,-277 3161.75,-271 3161.75,-271 3161.75,-186 3161.75,-186 3161.75,-180 3167.75,-174 3173.75,-174"/>
<text text-anchor="middle" x="3253.25" y="-267.8" font-family="Aqum" font-size="14.00">8</text>
</g>
<!-- 0 -->
<g id="node1" class="node">
<title>0</title>
<path fill="white" stroke="grey" stroke-width="2" d="M206.75,-16.5C206.75,-16.5 384.75,-16.5 384.75,-16.5 390.75,-16.5 396.75,-22.5 396.75,-28.5 396.75,-28.5 396.75,-73.5 396.75,-73.5 396.75,-79.5 390.75,-85.5 384.75,-85.5 384.75,-85.5 206.75,-85.5 206.75,-85.5 200.75,-85.5 194.75,-79.5 194.75,-73.5 194.75,-73.5 194.75,-28.5 194.75,-28.5 194.75,-22.5 200.75,-16.5 206.75,-16.5"/>
<text text-anchor="middle" x="295.75" y="-70.3" font-family="Aqum" font-size="14.00">prev(HEX): 0</text>
<polyline fill="none" stroke="grey" stroke-width="2" points="194.75,-62.5 396.75,-62.5"/>
<text text-anchor="middle" x="295.75" y="-47.3" font-family="Aqum" font-size="14.00">data(HEX): BEADFACE</text>
<polyline fill="none" stroke="grey" stroke-width="2" points="194.75,-39.5 396.75,-39.5"/>
<text text-anchor="middle" x="295.75" y="-24.3" font-family="Aqum" font-size="14.00">next(HEX): 0</text>
</g>
<!-- 0&#45;&gt;0 -->
<!-- 0&#45;&gt;0 -->
<g id="edge13" class="edge">
<title>0:n&#45;&gt;0:n</title>
<path fill="none" stroke="#eead0e" stroke-width="1.2" stroke-dasharray="5,2" d="M255.78,-39.57C151.97,-63.46 0,-59.61 0,-28 0,2.03 137.21,7.01 239.93,-13.06"/>
<polygon fill="none" stroke="#eead0e" stroke-width="1.2" points="238.96,-18.58 255.78,-16.43 241.29,-7.63 238.96,-18.58"/>
</g>
<!-- 0&#45;&gt;0 -->
<g id="edge14" class="edge">
<title>0:p&#45;&gt;0:p</title>
<path fill="none" stroke="darkslategray" stroke-width="1.2" stroke-dasharray="5,2" d="M255.78,-85.57C151.97,-109.46 0,-105.61 0,-74 0,-43.97 137.21,-38.99 239.93,-59.06"/>
<polygon fill="none" stroke="darkslategray" stroke-width="1.2" points="238.96,-64.58 255.78,-62.43 241.29,-53.63 238.96,-64.58"/>
</g>
<!-- 1 -->
<g id="node2" class="node">
<title>1</title>
<path fill="white" stroke="grey" stroke-width="2" d="M595.75,-182.5C595.75,-182.5 774.75,-182.5 774.75,-182.5 780.75,-182.5 786.75,-188.5 786.75,-194.5 786.75,-194.5 786.75,-239.5 786.75,-239.5 786.75,-245.5 780.75,-251.5 774.75,-251.5 774.75,-251.5 595.75,-251.5 595.75,-251.5 589.75,-251.5 583.75,-245.5 583.75,-239.5 583.75,-239.5 583.75,-194.5 583.75,-194.5 583.75,-188.5 589.75,-182.5 595.75,-182.5"/>
<text text-anchor="middle" x="685.25" y="-236.3" font-family="Aqum" font-size="14.00">prev(HEX): CAFEBABE</text>
<polyline fill="none" stroke="grey" stroke-width="2" points="583.75,-228.5 786.75,-228.5"/>
<text text-anchor="middle" x="685.25" y="-213.3" font-family="Aqum" font-size="14.00">data(HEX): FEE1DEAD</text>
<polyline fill="none" stroke="grey" stroke-width="2" points="583.75,-205.5 786.75,-205.5"/>
<text text-anchor="middle" x="685.25" y="-190.3" font-family="Aqum" font-size="14.00">next(HEX): 2</text>
</g>
<!-- 0&#45;&gt;1 -->
<!-- 2 -->
<g id="node3" class="node">
<title>2</title>
<path fill="white" stroke="grey" stroke-width="2" d="M985.75,-182.5C985.75,-182.5 1164.75,-182.5 1164.75,-182.5 1170.75,-182.5 1176.75,-188.5 1176.75,-194.5 1176.75,-194.5 1176.75,-239.5 1176.75,-239.5 1176.75,-245.5 1170.75,-251.5 1164.75,-251.5 1164.75,-251.5 985.75,-251.5 985.75,-251.5 979.75,-251.5 973.75,-245.5 973.75,-239.5 973.75,-239.5 973.75,-194.5 973.75,-194.5 973.75,-188.5 979.75,-182.5 985.75,-182.5"/>
<text text-anchor="middle" x="1075.25" y="-236.3" font-family="Aqum" font-size="14.00">prev(HEX): CAFEBABE</text>
<polyline fill="none" stroke="grey" stroke-width="2" points="973.75,-228.5 1176.75,-228.5"/>
<text text-anchor="middle" x="1075.25" y="-213.3" font-family="Aqum" font-size="14.00">data(HEX): FEE1DEAD</text>
<polyline fill="none" stroke="grey" stroke-width="2" points="973.75,-205.5 1176.75,-205.5"/>
<text text-anchor="middle" x="1075.25" y="-190.3" font-family="Aqum" font-size="14.00">next(HEX): 3</text>
</g>
<!-- 1&#45;&gt;2 -->
<!-- 1&#45;&gt;2 -->
<g id="edge15" class="edge">
<title>1:n&#45;&gt;2:n</title>
<path fill="none" stroke="#5d478b" stroke-width="1.2" d="M788.25,-194C864.28,-194 887.29,-194 955.87,-194"/>
<polygon fill="none" stroke="#5d478b" stroke-width="1.2" points="956.25,-199.6 972.25,-194 956.25,-188.4 956.25,-199.6"/>
</g>
<!-- 3 -->
<g id="node4" class="node">
<title>3</title>
<path fill="white" stroke="grey" stroke-width="2" d="M1375.75,-182.5C1375.75,-182.5 1554.75,-182.5 1554.75,-182.5 1560.75,-182.5 1566.75,-188.5 1566.75,-194.5 1566.75,-194.5 1566.75,-239.5 1566.75,-239.5 1566.75,-245.5 1560.75,-251.5 1554.75,-251.5 1554.75,-251.5 1375.75,-251.5 1375.75,-251.5 1369.75,-251.5 1363.75,-245.5 1363.75,-239.5 1363.75,-239.5 1363.75,-194.5 1363.75,-194.5 1363.75,-188.5 1369.75,-182.5 1375.75,-182.5"/>
<text text-anchor="middle" x="1465.25" y="-236.3" font-family="Aqum" font-size="14.00">prev(HEX): CAFEBABE</text>
<polyline fill="none" stroke="grey" stroke-width="2" points="1363.75,-228.5 1566.75,-228.5"/>
<text text-anchor="middle" x="1465.25" y="-213.3" font-family="Aqum" font-size="14.00">data(HEX): FEE1DEAD</text>
<polyline fill="none" stroke="grey" stroke-width="2" points="1363.75,-205.5 1566.75,-205.5"/>
<text text-anchor="middle" x="1465.25" y="-190.3" font-family="Aqum" font-size="14.00">next(HEX): 0</text>
</g>
<!-- 2&#45;&gt;3 -->
<!-- 2&#45;&gt;3 -->
<g id="edge16" class="edge">
<title>2:n&#45;&gt;3:n</title>
<path fill="none" stroke="#5d478b" stroke-width="1.2" d="M1178.25,-194C1254.28,-194 1277.29,-194 1345.87,-194"/>
<polygon fill="none" stroke="#5d478b" stroke-width="1.2" points="1346.25,-199.6 1362.25,-194 1346.25,-188.4 1346.25,-199.6"/>
</g>
<!-- 3&#45;&gt;0 -->
<g id="edge17" class="edge">
<title>3:n&#45;&gt;0:n</title>
<path fill="none" stroke="#5d478b" stroke-width="1.2" d="M1362.25,-194C1281.57,-194 1264.03,-170.92 1184.75,-156 841.85,-91.45 754.78,-29.92 413.91,-28.04"/>
<polygon fill="none" stroke="#5d478b" stroke-width="1.2" points="413.77,-22.44 397.75,-28 413.73,-33.64 413.77,-22.44"/>
</g>
<!-- 4 -->
<g id="node5" class="node">
<title>4</title>
<path fill="white" stroke="grey" stroke-width="2" d="M1765.75,-182.5C1765.75,-182.5 1908.75,-182.5 1908.75,-182.5 1914.75,-182.5 1920.75,-188.5 1920.75,-194.5 1920.75,-194.5 1920.75,-239.5 1920.75,-239.5 1920.75,-245.5 1914.75,-251.5 1908.75,-251.5 1908.75,-251.5 1765.75,-251.5 1765.75,-251.5 1759.75,-251.5 1753.75,-245.5 1753.75,-239.5 1753.75,-239.5 1753.75,-194.5 1753.75,-194.5 1753.75,-188.5 1759.75,-182.5 1765.75,-182.5"/>
<text text-anchor="middle" x="1837.25" y="-236.3" font-family="Aqum" font-size="14.00">prev(HEX): 3</text>
<polyline fill="none" stroke="grey" stroke-width="2" points="1753.75,-228.5 1920.75,-228.5"/>
<text text-anchor="middle" x="1837.25" y="-213.3" font-family="Aqum" font-size="14.00">data(HEX): DED32</text>
<polyline fill="none" stroke="grey" stroke-width="2" points="1753.75,-205.5 1920.75,-205.5"/>
<text text-anchor="middle" x="1837.25" y="-190.3" font-family="Aqum" font-size="14.00">next(HEX): 5</text>
</g>
<!-- 3&#45;&gt;4 -->
<!-- 4&#45;&gt;3 -->
<g id="edge19" class="edge">
<title>4:p&#45;&gt;3:p</title>
<path fill="none" stroke="darkslategray" stroke-width="1.2" stroke-dasharray="5,2" d="M1752.25,-240C1676.22,-240 1653.21,-240 1584.63,-240"/>
<polygon fill="none" stroke="darkslategray" stroke-width="1.2" points="1584.25,-234.4 1568.25,-240 1584.25,-245.6 1584.25,-234.4"/>
</g>
<!-- 5 -->
<g id="node6" class="node">
<title>5</title>
<path fill="white" stroke="grey" stroke-width="2" d="M2119.75,-182.5C2119.75,-182.5 2262.75,-182.5 2262.75,-182.5 2268.75,-182.5 2274.75,-188.5 2274.75,-194.5 2274.75,-194.5 2274.75,-239.5 2274.75,-239.5 2274.75,-245.5 2268.75,-251.5 2262.75,-251.5 2262.75,-251.5 2119.75,-251.5 2119.75,-251.5 2113.75,-251.5 2107.75,-245.5 2107.75,-239.5 2107.75,-239.5 2107.75,-194.5 2107.75,-194.5 2107.75,-188.5 2113.75,-182.5 2119.75,-182.5"/>
<text text-anchor="middle" x="2191.25" y="-236.3" font-family="Aqum" font-size="14.00">prev(HEX): 4</text>
<polyline fill="none" stroke="grey" stroke-width="2" points="2107.75,-228.5 2274.75,-228.5"/>
<text text-anchor="middle" x="2191.25" y="-213.3" font-family="Aqum" font-size="14.00">data(HEX): DED32</text>
<polyline fill="none" stroke="grey" stroke-width="2" points="2107.75,-205.5 2274.75,-205.5"/>
<text text-anchor="middle" x="2191.25" y="-190.3" font-family="Aqum" font-size="14.00">next(HEX): 6</text>
</g>
<!-- 4&#45;&gt;5 -->
<!-- 4&#45;&gt;5 -->
<g id="edge18" class="edge">
<title>4:n&#45;&gt;5:n</title>
<path fill="none" stroke="#eead0e" stroke-width="1.2" stroke-dasharray="5,2" d="M1922.25,-194C1998.28,-194 2021.29,-194 2089.87,-194"/>
<polygon fill="none" stroke="#eead0e" stroke-width="1.2" points="2090.25,-199.6 2106.25,-194 2090.25,-188.4 2090.25,-199.6"/>
</g>
<!-- 5&#45;&gt;4 -->
<g id="edge21" class="edge">
<title>5:p&#45;&gt;4:p</title>
<path fill="none" stroke="darkslategray" stroke-width="1.2" stroke-dasharray="5,2" d="M2106.25,-240C2030.22,-240 2007.21,-240 1938.63,-240"/>
<polygon fill="none" stroke="darkslategray" stroke-width="1.2" points="1938.25,-234.4 1922.25,-240 1938.25,-245.6 1938.25,-234.4"/>
</g>
<!-- 6 -->
<g id="node7" class="node">
<title>6</title>
<path fill="white" stroke="grey" stroke-width="2" d="M2473.75,-182.5C2473.75,-182.5 2616.75,-182.5 2616.75,-182.5 2622.75,-182.5 2628.75,-188.5 2628.75,-194.5 2628.75,-194.5 2628.75,-239.5 2628.75,-239.5 2628.75,-245.5 2622.75,-251.5 2616.75,-251.5 2616.75,-251.5 2473.75,-251.5 2473.75,-251.5 2467.75,-251.5 2461.75,-245.5 2461.75,-239.5 2461.75,-239.5 2461.75,-194.5 2461.75,-194.5 2461.75,-188.5 2467.75,-182.5 2473.75,-182.5"/>
<text text-anchor="middle" x="2545.25" y="-236.3" font-family="Aqum" font-size="14.00">prev(HEX): 5</text>
<polyline fill="none" stroke="grey" stroke-width="2" points="2461.75,-228.5 2628.75,-228.5"/>
<text text-anchor="middle" x="2545.25" y="-213.3" font-family="Aqum" font-size="14.00">data(HEX): DED32</text>
<polyline fill="none" stroke="grey" stroke-width="2" points="2461.75,-205.5 2628.75,-205.5"/>
<text text-anchor="middle" x="2545.25" y="-190.3" font-family="Aqum" font-size="14.00">next(HEX): 7</text>
</g>
<!-- 5&#45;&gt;6 -->
<!-- 5&#45;&gt;6 -->
<g id="edge20" class="edge">
<title>5:n&#45;&gt;6:n</title>
<path fill="none" stroke="#eead0e" stroke-width="1.2" stroke-dasharray="5,2" d="M2276.25,-194C2352.28,-194 2375.29,-194 2443.87,-194"/>
<polygon fill="none" stroke="#eead0e" stroke-width="1.2" points="2444.25,-199.6 2460.25,-194 2444.25,-188.4 2444.25,-199.6"/>
</g>
<!-- 6&#45;&gt;5 -->
<g id="edge23" class="edge">
<title>6:p&#45;&gt;5:p</title>
<path fill="none" stroke="darkslategray" stroke-width="1.2" stroke-dasharray="5,2" d="M2460.25,-240C2384.22,-240 2361.21,-240 2292.63,-240"/>
<polygon fill="none" stroke="darkslategray" stroke-width="1.2" points="2292.25,-234.4 2276.25,-240 2292.25,-245.6 2292.25,-234.4"/>
</g>
<!-- 7 -->
<g id="node8" class="node">
<title>7</title>
<path fill="white" stroke="grey" stroke-width="2" d="M2827.75,-182.5C2827.75,-182.5 2970.75,-182.5 2970.75,-182.5 2976.75,-182.5 2982.75,-188.5 2982.75,-194.5 2982.75,-194.5 2982.75,-239.5 2982.75,-239.5 2982.75,-245.5 2976.75,-251.5 2970.75,-251.5 2970.75,-251.5 2827.75,-251.5 2827.75,-251.5 2821.75,-251.5 2815.75,-245.5 2815.75,-239.5 2815.75,-239.5 2815.75,-194.5 2815.75,-194.5 2815.75,-188.5 2821.75,-182.5 2827.75,-182.5"/>
<text text-anchor="middle" x="2899.25" y="-236.3" font-family="Aqum" font-size="14.00">prev(HEX): 6</text>
<polyline fill="none" stroke="grey" stroke-width="2" points="2815.75,-228.5 2982.75,-228.5"/>
<text text-anchor="middle" x="2899.25" y="-213.3" font-family="Aqum" font-size="14.00">data(HEX): DED32</text>
<polyline fill="none" stroke="grey" stroke-width="2" points="2815.75,-205.5 2982.75,-205.5"/>
<text text-anchor="middle" x="2899.25" y="-190.3" font-family="Aqum" font-size="14.00">next(HEX): 8</text>
</g>
<!-- 6&#45;&gt;7 -->
<!-- 6&#45;&gt;7 -->
<g id="edge22" class="edge">
<title>6:n&#45;&gt;7:n</title>
<path fill="none" stroke="#eead0e" stroke-width="1.2" stroke-dasharray="5,2" d="M2630.25,-194C2706.28,-194 2729.29,-194 2797.87,-194"/>
<polygon fill="none" stroke="#eead0e" stroke-width="1.2" points="2798.25,-199.6 2814.25,-194 2798.25,-188.4 2798.25,-199.6"/>
</g>
<!-- 7&#45;&gt;6 -->
<g id="edge25" class="edge">
<title>7:p&#45;&gt;6:p</title>
<path fill="none" stroke="darkslategray" stroke-width="1.2" stroke-dasharray="5,2" d="M2814.25,-240C2738.22,-240 2715.21,-240 2646.63,-240"/>
<polygon fill="none" stroke="darkslategray" stroke-width="1.2" points="2646.25,-234.4 2630.25,-240 2646.25,-245.6 2646.25,-234.4"/>
</g>
<!-- 8 -->
<g id="node9" class="node">
<title>8</title>
<path fill="white" stroke="grey" stroke-width="2" d="M3181.75,-182.5C3181.75,-182.5 3324.75,-182.5 3324.75,-182.5 3330.75,-182.5 3336.75,-188.5 3336.75,-194.5 3336.75,-194.5 3336.75,-239.5 3336.75,-239.5 3336.75,-245.5 3330.75,-251.5 3324.75,-251.5 3324.75,-251.5 3181.75,-251.5 3181.75,-251.5 3175.75,-251.5 3169.75,-245.5 3169.75,-239.5 3169.75,-239.5 3169.75,-194.5 3169.75,-194.5 3169.75,-188.5 3175.75,-182.5 3181.75,-182.5"/>
<text text-anchor="middle" x="3253.25" y="-236.3" font-family="Aqum" font-size="14.00">prev(HEX): 7</text>
<polyline fill="none" stroke="grey" stroke-width="2" points="3169.75,-228.5 3336.75,-228.5"/>
<text text-anchor="middle" x="3253.25" y="-213.3" font-family="Aqum" font-size="14.00">data(HEX): DED32</text>
<polyline fill="none" stroke="grey" stroke-width="2" points="3169.75,-205.5 3336.75,-205.5"/>
<text text-anchor="middle" x="3253.25" y="-190.3" font-family="Aqum" font-size="14.00">next(HEX): 9</text>
</g>
<!-- 7&#45;&gt;8 -->
<!-- 7&#45;&gt;8 -->
<g id="edge24" class="edge">
<title>7:n&#45;&gt;8:n</title>
<path fill="none" stroke="#eead0e" stroke-width="1.2" stroke-dasharray="5,2" d="M2984.25,-194C3060.28,-194 3083.29,-194 3151.87,-194"/>
<polygon fill="none" stroke="#eead0e" stroke-width="1.2" points="3152.25,-199.6 3168.25,-194 3152.25,-188.4 3152.25,-199.6"/>
</g>
<!-- 8&#45;&gt;7 -->
<g id="edge27" class="edge">
<title>8:p&#45;&gt;7:p</title>
<path fill="none" stroke="darkslategray" stroke-width="1.2" stroke-dasharray="5,2" d="M3168.25,-240C3092.22,-240 3069.21,-240 3000.63,-240"/>
<polygon fill="none" stroke="darkslategray" stroke-width="1.2" points="3000.25,-234.4 2984.25,-240 3000.25,-245.6 3000.25,-234.4"/>
</g>
<!-- 9 -->
<g id="node13" class="node">
<title>9</title>
<path fill="white" stroke="grey" stroke-width="2" d="M3565.75,-194C3565.75,-194 3535.75,-194 3535.75,-194 3529.75,-194 3523.75,-188 3523.75,-182 3523.75,-182 3523.75,-170 3523.75,-170 3523.75,-164 3529.75,-158 3535.75,-158 3535.75,-158 3565.75,-158 3565.75,-158 3571.75,-158 3577.75,-164 3577.75,-170 3577.75,-170 3577.75,-182 3577.75,-182 3577.75,-188 3571.75,-194 3565.75,-194"/>
<text text-anchor="middle" x="3550.75" y="-172.3" font-family="Aqum" font-size="14.00">9</text>
</g>
<!-- 8&#45;&gt;9 -->
<g id="edge26" class="edge">
<title>8:n&#45;&gt;9:n</title>
<path fill="none" stroke="#eead0e" stroke-width="1.2" stroke-dasharray="5,2" d="M3338.25,-194C3426.61,-194 3535.63,-277.54 3549.32,-210.97"/>
<polygon fill="none" stroke="#eead0e" stroke-width="1.2" points="3554.9,-211.44 3550.75,-195 3543.74,-210.44 3554.9,-211.44"/>
</g>
<!-- free -->
<g id="node10" class="node">
<title>free</title>
<path fill="white" stroke="grey" stroke-width="2" d="M314.75,-320C314.75,-320 276.75,-320 276.75,-320 270.75,-320 264.75,-314 264.75,-308 264.75,-308 264.75,-296 264.75,-296 264.75,-290 270.75,-284 276.75,-284 276.75,-284 314.75,-284 314.75,-284 320.75,-284 326.75,-290 326.75,-296 326.75,-296 326.75,-308 326.75,-308 326.75,-314 320.75,-320 314.75,-320"/>
<text text-anchor="middle" x="295.75" y="-298.3" font-family="Aqum" font-size="14.00">free</text>
</g>
<!-- free&#45;&gt;1 -->
<g id="edge10" class="edge">
<title>free&#45;&gt;1:n</title>
<path fill="none" stroke="cadetblue" stroke-width="1.2" d="M326.94,-287.43C383.54,-260.6 505.36,-205.21 566.15,-195.48"/>
<polygon fill="none" stroke="cadetblue" stroke-width="1.2" points="566.83,-201.04 582.25,-194 565.81,-189.89 566.83,-201.04"/>
</g>
<!-- tail -->
<g id="node11" class="node">
<title>tail</title>
<path fill="white" stroke="grey" stroke-width="2" d="M310.75,-428C310.75,-428 280.75,-428 280.75,-428 274.75,-428 268.75,-422 268.75,-416 268.75,-416 268.75,-404 268.75,-404 268.75,-398 274.75,-392 280.75,-392 280.75,-392 310.75,-392 310.75,-392 316.75,-392 322.75,-398 322.75,-404 322.75,-404 322.75,-416 322.75,-416 322.75,-422 316.75,-428 310.75,-428"/>
<text text-anchor="middle" x="295.75" y="-406.3" font-family="Aqum" font-size="14.00">tail</text>
</g>
<!-- tail&#45;&gt;1 -->
<g id="edge11" class="edge">
<title>tail&#45;&gt;1:p</title>
<path fill="none" stroke="cadetblue" stroke-width="1.2" d="M322.94,-397.95C345.09,-387.51 377.48,-371.66 404.75,-356 481.53,-311.91 487.53,-248.28 566.11,-240.74"/>
<polygon fill="none" stroke="cadetblue" stroke-width="1.2" points="566.52,-246.33 582.25,-240 566.01,-235.14 566.52,-246.33"/>
</g>
<!-- head -->
<g id="node12" class="node">
<title>head</title>
<path fill="white" stroke="grey" stroke-width="2" d="M314.75,-212C314.75,-212 276.75,-212 276.75,-212 270.75,-212 264.75,-206 264.75,-200 264.75,-200 264.75,-188 264.75,-188 264.75,-182 270.75,-176 276.75,-176 276.75,-176 314.75,-176 314.75,-176 320.75,-176 326.75,-182 326.75,-188 326.75,-188 326.75,-200 326.75,-200 326.75,-206 320.75,-212 314.75,-212"/>
<text text-anchor="middle" x="295.75" y="-190.3" font-family="Aqum" font-size="14.00">head</text>
</g>
<!-- head&#45;&gt;1 -->
<g id="edge12" class="edge">
<title>head&#45;&gt;1:n</title>
<path fill="none" stroke="cadetblue" stroke-width="1.2" d="M326.76,-194C375.78,-194 476.55,-194 565.99,-194"/>
<polygon fill="none" stroke="cadetblue" stroke-width="1.2" points="566.25,-199.6 582.25,-194 566.25,-188.4 566.25,-199.6"/>
</g>
</g>
</svg>
